{
  "accessors": [
    {
      "bufferView": 2,
      "componentType": 5126,
      "count": 65532,
      "max": [
        0.9957560896873474,
        0.9999716281890869,
        0.9916806221008301
      ],
      "min": [
        -0.9960047602653503,
        -0.9932069778442383,
        -0.978326141834259
      ],
      "type": "VEC3"
    },
    {
      "bufferView": 2,
      "byteOffset": 786384,
      "componentType": 5126,
      "count": 65532,
      "max": [
        0.9956284165382385,
        0.9999579787254333,
        0.9914906620979309
      ],
      "min": [
        -0.9958750009536743,
        -0.9930339455604553,
        -0.9780175685882568
      ],
      "type": "VEC3"
    },
    {
      "bufferView": 1,
      "componentType": 5126,
      "count": 65532,
      "max": [
        0.0,
        0.0
      ],
      "min": [
        0.0,
        0.0
      ],
      "type": "VEC2"
    },
    {
      "bufferView": 0,
      "componentType": 5125,
      "count": 163830,
      "type": "SCALAR"
    },
    {
      "bufferView": 2,
      "byteOffset": 1572768,
      "componentType": 5126,
      "count": 26772,
      "max": [
        0.9978731870651245,
        0.9998771548271179,
        0.9816705584526062
      ],
      "min": [
        -0.9929372668266296,
        -0.9887490272521973,
        -0.9779289960861206
      ],
      "type": "VEC3"
    },
    {
      "bufferView": 2,
      "byteOffset": 1894032,
      "componentType": 5126,
      "count": 26772,
      "max": [
        0.997776985168457,
        0.9998527765274048,
        0.981396496295929
      ],
      "min": [
        -0.9927641749382019,
        -0.9885227084159851,
        -0.9776179194450378
      ],
      "type": "VEC3"
    },
    {
      "bufferView": 1,
      "byteOffset": 524256,
      "componentType": 5126,
      "count": 26772,
      "max": [
        0.0,
        0.0
      ],
      "min": [
        0.0,
        0.0
      ],
      "type": "VEC2"
    },
    {
      "bufferView": 0,
      "byteOffset": 655320,
      "componentType": 5125,
      "count": 66930,
      "type": "SCALAR"
    },
    {
      "bufferView": 2,
      "byteOffset": 2215296,
      "componentType": 5126,
      "count": 8254,
      "max": [
        0.999589204788208,
        0.999589204788208,
        0.9998999834060669
      ],
      "min": [
        -0.999589204788208,
        -0.999589204788208,
        -0.9998999834060669
      ],
      "type": "VEC3"
    },
    {
      "bufferView": 2,
      "byteOffset": 2314344,
      "componentType": 5126,
      "count": 8254,
      "max": [
        0.9996894598007202,
        0.9996894001960754,
        0.9999999403953552
      ],
      "min": [
        -0.9996894598007202,
        -0.9996894001960754,
        -1.0
      ],
      "type": "VEC3"
    },
    {
      "bufferView": 1,
      "byteOffset": 738432,
      "componentType": 5126,
      "count": 8254,
      "max": [
        1.0,
        1.0
      ],
      "min": [
        0.0,
        0.0
      ],
      "type": "VEC2"
    },
    {
      "bufferView": 0,
      "byteOffset": 923040,
      "componentType": 5125,
      "count": 47616,
      "type": "SCALAR"
    }
  ],
  "asset": {
    "extras": {
      "author": "famousandfaded (https://sketchfab.com/famousandfaded)",
      "license": "SKETCHFAB Standard (https://sketchfab.com/licenses)",
      "source": "https://sketchfab.com/3d-models/airports-around-the-world-e58f56a352b540469fd209abf0c37bc5",
      "title": "Airports around the world"
    },
    "generator": "Sketchfab-15.49.0",
    "version": "2.0"
  },
  "bufferViews": [
    {
      "buffer": 0,
      "byteLength": 1113504,
      "name": "floatBufferViews",
      "target": 34963
    },
    {
      "buffer": 0,
      "byteLength": 804464,
      "byteOffset": 1113504,
      "byteStride": 8,
      "name": "floatBufferViews",
      "target": 34962
    },
    {
      "buffer": 0,
      "byteLength": 2413392,
      "byteOffset": 1917968,
      "byteStride": 12,
      "name": "floatBufferViews",
      "target": 34962
    }
  ],
  "buffers": [
    {
      "byteLength": 4331360,
      "uri": "scene.bin"
    }
  ],
  "extensionsUsed": [
    "KHR_materials_specular"
  ],
  "images": [
    {
      "uri": "textures/matsurface_material_baseColor.png"
    }
  ],
  "materials": [
    {
      "name": "matairport_material",
      "pbrMetallicRoughness": {
        "baseColorFactor": [
          1.0,
          0.6198549218,
          0.0,
          1.0
        ],
        "metallicFactor": 0.0,
        "roughnessFactor": 0.7501029599
      }
    },
    {
      "doubleSided": true,
      "extensions": {
        "KHR_materials_specular": {
          "specularColorFactor": [
            1.0,
            1.0,
            1.0
          ],
          "specularFactor": 0.0
        }
      },
      "name": "matsurface_material",
      "pbrMetallicRoughness": {
        "baseColorTexture": {
          "index": 0
        },
        "metallicFactor": 0.0
      }
    }
  ],
  "meshes": [
    {
      "name": "Object_0",
      "primitives": [
        {
          "attributes": {
            "NORMAL": 1,
            "POSITION": 0,
            "TEXCOORD_0": 2
          },
          "indices": 3,
          "material": 0,
          "mode": 4
        }
      ]
    },
    {
      "name": "Object_1",
      "primitives": [
        {
          "attributes": {
            "NORMAL": 5,
            "POSITION": 4,
            "TEXCOORD_0": 6
          },
          "indices": 7,
          "material": 0,
          "mode": 4
        }
      ]
    },
    {
      "name": "Object_2",
      "primitives": [
        {
          "attributes": {
            "NORMAL": 9,
            "POSITION": 8,
            "TEXCOORD_0": 10
          },
          "indices": 11,
          "material": 1,
          "mode": 4
        }
      ]
    }
  ],
  "nodes": [
    {
      "children": [
        1
      ],
      "matrix": [
        0.1666666716337204,
        0.0,
        0.0,
        0.0,
        0.0,
        3.700743525707937e-17,
        -0.1666666716337204,
        0.0,
        0.0,
        0.1666666716337204,
        3.700743525707937e-17,
        0.0,
        0.0,
        0.0,
        0.0,
        1.0
      ],
      "name": "Sketchfab_model"
    },
    {
      "children": [
        2,
        3,
        4
      ],
      "name": "Airports.obj.cleaner.materialmerger.gles"
    },
    {
      "mesh": 0,
      "name": "Object_2"
    },
    {
      "mesh": 1,
      "name": "Object_3"
    },
    {
      "mesh": 2,
      "name": "Object_4"
    }
  ],
  "samplers": [
    {
      "magFilter": 9729,
      "minFilter": 9987,
      "wrapS": 10497,
      "wrapT": 10497
    }
  ],
  "scene": 0,
  "scenes": [
    {
      "name": "Sketchfab_Scene",
      "nodes": [
        0
      ]
    }
  ],
  "textures": [
    {
      "sampler": 0,
      "source": 0
    }
  ]
}
